<svg width="20" height="19" viewBox="0 0 20 19" fill="none" xmlns="http://www.w3.org/2000/svg">
<g clip-path="url(#clip0_1_21)">
<path fill-rule="evenodd" clip-rule="evenodd" d="M9.8225 0C4.39091 0 0 4.35417 0 9.74086C0 14.0467 2.81341 17.6916 6.71635 18.9816C7.20432 19.0786 7.38306 18.772 7.38306 18.5141C7.38306 18.2883 7.36697 17.5142 7.36697 16.7077C4.63459 17.2884 4.0656 15.5466 4.0656 15.5466C3.62649 14.4176 2.97586 14.1275 2.97586 14.1275C2.08156 13.5308 3.04101 13.5308 3.04101 13.5308C4.03303 13.5953 4.55357 14.5306 4.55357 14.5306C5.43159 16.0142 6.84643 15.595 7.41563 15.337C7.49686 14.708 7.75723 14.2726 8.03368 14.0307C5.85441 13.8049 3.56155 12.9663 3.56155 9.2247C3.56155 8.1603 3.9516 7.28947 4.56965 6.6122C4.47214 6.37034 4.13054 5.37027 4.66737 4.03176C4.66737 4.03176 5.49673 3.77368 7.36677 5.03164C8.16741 4.81841 8.99308 4.70994 9.8225 4.70903C10.6519 4.70903 11.4973 4.82204 12.278 5.03164C14.1483 3.77368 14.9776 4.03176 14.9776 4.03176C15.5145 5.37027 15.1727 6.37034 15.0751 6.6122C15.7095 7.28947 16.0835 8.1603 16.0835 9.2247C16.0835 12.9663 13.7906 13.7887 11.595 14.0307C11.9529 14.3371 12.2617 14.9176 12.2617 15.8369C12.2617 17.1431 12.2457 18.1915 12.2457 18.5139C12.2457 18.772 12.4246 19.0786 12.9124 18.9818C16.8153 17.6914 19.6287 14.0467 19.6287 9.74086C19.6448 4.35417 15.2378 0 9.8225 0Z" fill="white"/>
</g>
<defs>
<clipPath id="clip0_1_21">
<rect width="19.7037" height="19" fill="white"/>
</clipPath>
</defs>
</svg>
