<svg width="20" height="20" viewBox="0 0 20 20" fill="none" xmlns="http://www.w3.org/2000/svg">
<g clip-path="url(#clip0_1_23)">
<path fill-rule="evenodd" clip-rule="evenodd" d="M2.22222 20H17.7778C19.0051 20 20 19.0051 20 17.7778V2.22222C20 0.994923 19.0051 0 17.7778 0H2.22222C0.994923 0 0 0.994923 0 2.22222V17.7778C0 19.0051 0.994923 20 2.22222 20Z" fill="#007EBB" fill-opacity="0.8"/>
<path fill-rule="evenodd" clip-rule="evenodd" d="M17.2222 17.2222H14.2543V12.1672C14.2543 10.7813 13.7277 10.0068 12.6307 10.0068C11.4374 10.0068 10.8139 10.8128 10.8139 12.1672V17.2222H7.9537V7.59259H10.8139V8.8897C10.8139 8.8897 11.6739 7.29839 13.7174 7.29839C15.7599 7.29839 17.2222 8.54568 17.2222 11.1253V17.2222ZM4.54148 6.33166C3.56723 6.33166 2.77777 5.53601 2.77777 4.55472C2.77777 3.57343 3.56723 2.77777 4.54148 2.77777C5.51573 2.77777 6.30472 3.57343 6.30472 4.55472C6.30472 5.53601 5.51573 6.33166 4.54148 6.33166ZM3.06459 17.2222H6.04705V7.59259H3.06459V17.2222Z" fill="white" />
</g>
<defs>
<clipPath id="clip0_1_23">
<rect width="20" height="20" fill="white"/>
</clipPath>
</defs>
</svg>
